<?xml version="1.0" encoding="UTF-8"?>
<svg id="Layer_2" data-name="Layer 2" xmlns="http://www.w3.org/2000/svg" viewBox="0 0 140.4 36.55">
  <defs>
    <style>
      .cls-1 {
        fill: #efebe5;
        stroke-width: 0px;
      }
    </style>
  </defs>
  <g id="Isolation_Mode" data-name="Isolation Mode">
    <g>
      <g>
        <path class="cls-1" d="m50.53,35.36c-3.21-.94-6.2-2.38-8.62-4.36-3.52-2.89-5.7-7.01-5.27-11.1.16-1.55.69-3.06,1.23-4.55,1.15-3.16,2.45-6.36,4.83-9.02,1.75-1.96,4.19-3.59,6.95-4.34,1-.27,2.11.11,2.62.88,3.83,5.77.56,12.77,1.63,19.19.15.91.43,1.87,1.23,2.5.83.65,2.03.83,3.09,1.18,3.54,1.18,5.53,4.86,4.24,7.84-.42.97-1.17,1.87-2.24,2.4-1.52.74-3.42.63-5.16.36-1.53-.23-3.05-.56-4.53-.99Z"/>
        <path class="cls-1" d="m72.55,30.85c.8-2.08,1.06-4.34,1.2-6.54.44-6.8.04-13.8-5.27-19.75-.5-.56-1.09-1.05-1.72-1.51-1.65-1.2-5.18-3.71-8.5-2.88-1.6.4-2.66,1.98-2.41,3.35h0c.09.48.29.93.58,1.35,2.63,3.91,3.43,8.66,2.14,13.01-.35,1.18-.85,2.43-.38,3.58.89,2.21,4.47,2.59,6.48,4.21,1.5,1.21,1.97,2.91,2.32,4.56.23,1.11.19,3.99,1.59,4.56,2.21.91,3.52-2.8,3.97-3.96Z"/>
      </g>
      <path class="cls-1" d="m20.94,35.31v-7.8l-11.4-11.4v19.2H0V1.24h6.6l14.34,14.34V1.24h9.54v34.08h-9.54Z"/>
      <path class="cls-1" d="m113.34,32.26c-.24.3-3.12,3.66-7.56,3.66s-6.66-2.4-8.58-6l-3.78-6.96h-.96v12.36h-9.54V1.24h11.34c8.34,0,13.2,4.2,13.2,10.74,0,5.58-4.14,8.04-4.86,8.52l4.08,6.3c.6,1.02,1.32,1.5,2.28,1.5,1.02,0,1.62-.54,1.74-.66l2.64,4.62Zm-19.62-15.78c1.92,0,4.2-1.14,4.2-3.72,0-2.4-1.62-3.78-3.96-3.78h-1.5v7.5h1.26Z"/>
      <path class="cls-1" d="m123.54,20.44c-1.92-1.26-7.2-4.08-7.2-10.08S121.62.28,129,.28c5.04,0,8.76,1.62,9.42,1.92v8.16c-.6-.24-4.02-1.68-8.28-1.68-2.82,0-4.26.66-4.26,1.68s1.14,1.62,2.4,2.4l4.92,3.06c2.16,1.44,7.2,4.2,7.2,10.2,0,6.3-5.46,10.26-13.02,10.26-6.24,0-10.74-2.28-11.34-2.58v-8.34c.48.18,6.36,2.58,10.8,2.58,2.82,0,4.02-.84,4.02-1.86,0-.96-1.14-1.56-2.1-2.22l-5.22-3.42Z"/>
    </g>
  </g>
</svg>